<svg width="64px" height="64px" viewBox="0 -1.5 48 48" id="b" xmlns="http://www.w3.org/2000/svg" fill="currentColor">
  <g id="SVGRepo_bgCarrier" stroke-width="0"></g>
  <g id="SVGRepo_tracerCarrier" stroke-linecap="round" stroke-linejoin="round"></g>
  <g id="SVGRepo_iconCarrier">
    <defs>
      <style>.j{fill:none;stroke:currentColor;stroke-width:2.3;stroke-linecap:round;stroke-linejoin:round;}</style>
    </defs>
    <g id="c">
      <path id="d" class="j" d="m23.0207,5.8116l15.9552,2.774c1.7529.3048,3.2115,1.4323,3.2115,3.2115v24.5447c0,1.7792-1.4539,2.9355-3.2115,3.2115l-15.8998,2.4966c-1.7576.276-3.2082-1.4323-3.2115-3.2115l-.0555-29.8153c-.0033-1.7792,1.4586-3.5163,3.2115-3.2115Z"></path>
      <path id="g" class="j" d="m19.8092,36.1193l-6.2136.9757c-1.2923.2029-2.3588-1.0531-2.3612-2.3612l-.0408-21.9213c-.0024-1.3081,1.0724-2.5853,2.3612-2.3612h0l6.2544,1.0874"></path>
      <path id="i" class="j" d="m11.1598,32.5819l-4.332.6802c-.8825.1386-1.6108-.7192-1.6124-1.6125l-.0279-14.9698c-.0016-.8933.7324-1.7655,1.6124-1.6124h0l4.3605.7581"></path>
    </g>
  </g>
</svg>